#!OML:ASF H:\GeneralSubjects\Female5\Project 1\Capture day 1\Session 1\Female5.ASF
:FULLY-SPECIFIED
:DEGREES
166
root 9.99054 15.8794 -10.7373 -178.089 73.59 -185.865
lowerback 9.65618 2.263 1.64234
upperback -8.2281 3.16721 -3.27531
thorax -14.2715 1.18916 -5.28839
lowerneck -17.0126 -7.92842 -4.50799
upperneck 33.7635 -12.1378 8.18064
head 15.6071 -4.09139 2.11045
rclavicle -5.04416e-014 2.3059e-014
rhumerus -50.9209 43.5605 -89.2097
rradius 47.9213
rwrist 17.8654
rhand -35.9815 -12.3055
rfingers 7.12502
rthumb -9.092 -42.0895
lclavicle -5.04416e-014 2.3059e-014
lhumerus -43.1257 -9.0777 71.1691
lradius 37.2837
lwrist -7.60327
lhand -25.546 35.3774
lfingers 7.12502
lthumb 0.984244 65.3549
rfemur -29.0924 4.64608 22.5236
rtibia 14.4203
rfoot -31.285 -28.4236
rtoes -3.5139
lfemur 2.82937 -17.8608 -34.3616
ltibia 6.63571
lfoot -15.386 17.1268
ltoes -68.8444
167
root 10.2809 15.8598 -10.7629 -178.912 73.3317 -187.023
lowerback 9.42574 2.11686 1.36863
upperback -8.37556 2.92459 -3.38909
thorax -14.3337 1.09887 -5.2072
lowerneck -16.6554 -8.13707 -4.72476
upperneck 33.7526 -12.4842 8.49335
head 15.6015 -4.22505 2.22495
rclavicle 5.46658e-015 1.82882e-014
rhumerus -52.7711 40.5472 -89.3632
rradius 45.6272
rwrist 15.9495
rhand -35.9245 -13.7444
rfingers 7.12502
rthumb -9.03696 -43.5308
lclavicle 5.46658e-015 1.82882e-014
lhumerus -41.509 -9.16601 70.497
lradius 37.1486
lwrist -8.25107
lhand -26.1453 35.0544
lfingers 7.12502
lthumb 0.405405 65.0337
rfemur -28.8141 10.0696 19.4291
rtibia 7.84782
rfoot -34.7132 -30.8129
rtoes 0.0618761
lfemur 4.502 -18.6803 -35.1001
ltibia 5.39056
lfoot -15.6535 17.9897
ltoes -68.8379
168
root 10.5792 15.8302 -10.7803 -180.101 73.0671 -188.516
lowerback 9.2406 1.98242 0.980522
upperback -8.51439 2.67597 -3.55057
thorax -14.4167 1.01448 -5.1174
lowerneck -16.4908 -8.3316 -4.82552
upperneck 33.9612 -12.7591 8.50945
head 15.7023 -4.33967 2.20748
rclavicle -8.24956e-015 1.98785e-014
rhumerus -54.1984 37.372 -89.1779
rradius 43.0525
rwrist 14.0511
rhand -35.762 -14.8975
rfingers 7.12502
rthumb -8.88018 -44.6906
lclavicle -8.24956e-015 1.98785e-014
lhumerus -39.8712 -8.85699 69.7557
lradius 37.074
lwrist -8.75785
lhand -26.4674 35.0497
lfingers 7.12502
lthumb 0.0943494 65.0294
rfemur -28.9874 19.0848 14.1784
rtibia 1.98664
rfoot -42.2354 -34.6256
rtoes 6.52766
lfemur 6.17584 -19.6569 -36.0062
ltibia 4.32637
lfoot -15.8727 18.973
ltoes -68.8274
169
root 10.8815 15.7933 -10.8001 -181.445 72.7197 -190.104
lowerback 9.09372 1.83409 0.69444
upperback -8.67498 2.41828 -3.80082
thorax -14.5431 0.909366 -5.18897
lowerneck -16.1091 -8.57025 -4.82021
upperneck 34.1052 -13.0866 8.41091
head 15.7041 -4.48833 2.11891
rclavicle 3.17062e-014 3.18055e-014
rhumerus -55.2256 34.0002 -88.7045
rradius 40.0374
rwrist 12.2383
rhand -35.3703 -16.038
rfingers 7.12502
rthumb -8.50215 -45.8468
lclavicle 3.17062e-014 3.18055e-014
lhumerus -38.272 -8.39027 68.9999
lradius 36.9521
lwrist -8.88027
lhand -26.9336 34.6775
lfingers 7.12502
lthumb -0.355916 64.6569
rfemur -27.1829 18.5227 14.15
rtibia -3.65322
rfoot -42.0775 -29.9757
rtoes 11.1258
lfemur 7.8116 -20.4563 -37.0013
ltibia 3.56887
lfoot -16.0145 19.7314
ltoes -68.8072
170
root 11.1916 15.7502 -10.8223 -182.14 72.275 -191.026
lowerback 8.89134 1.66037 0.648334
upperback -8.8885 2.17158 -4.01653
thorax -14.6907 0.786859 -5.36127
lowerneck -16.0548 -8.69197 -6.14531
upperneck 34.5558 -13.2899 9.60094
head 16.1947 -4.54141 2.83863
rclavicle -4.33351e-014 4.13472e-014
rhumerus -55.8995 30.0771 -87.6502
rradius 36.6413
rwrist 11.2907
rhand -34.8616 -17.5703
rfingers 7.12502
rthumb -8.01124 -47.3985
lclavicle -4.33351e-014 4.13472e-014
lhumerus -36.7869 -7.83678 68.3712
lradius 36.8688
lwrist -8.64909
lhand -27.1436 35.908
lfingers 7.12502
lthumb -0.558735 65.887
rfemur -27.2461 17.8669 14.2608
rtibia -5.40497
rfoot -39.2432 -30.8132
rtoes 10.4198
lfemur 9.35419 -21.0127 -37.7555
ltibia 3.06224
lfoot -16.1599 20.1329
ltoes -68.82
171
root 11.5092 15.7025 -10.8396 -182.199 71.7899 -191.339
lowerback 8.68416 1.4461 0.704525
upperback -9.19041 1.8996 -4.13413
thorax -14.9473 0.645152 -5.48331
lowerneck -15.8166 -8.82625 -5.04604
upperneck 34.8868 -13.4383 8.43678
head 16.084 -4.60702 2.13731
rclavicle 4.59193e-014 7.15625e-015
rhumerus -56.4455 25.9278 -86.1501
rradius 33.0303
rwrist 11.0719
rhand -34.575 -19.4034
rfingers 7.12502
rthumb -7.73455 -49.2419
lclavicle 4.59193e-014 7.15625e-015
lhumerus -35.7816 -7.31592 67.9039
lradius 37.1816
lwrist -8.04243
lhand -27.0843 37.2831
lfingers 7.12502
lthumb -0.501484 67.2622
rfemur -27.3418 17.1813 14.5578
rtibia -6.91413
rfoot -35.783 -32.8752
rtoes 6.9083
lfemur 10.6148 -21.3264 -38.1181
ltibia 2.83862
lfoot -16.2381 20.2107
ltoes -68.9003
172
root 11.8355 15.6563 -10.8533 -182.106 71.3276 -191.527
lowerback 8.39871 1.24618 0.749246
upperback -9.50232 1.65408 -4.19326
thorax -15.1675 0.522878 -5.5347
lowerneck -15.5345 -8.94206 -4.90071
upperneck 35.2073 -13.535 8.06994
head 16.1317 -4.66403 1.95749
rclavicle -5.51627e-014 5.08889e-014
rhumerus -56.9661 21.9235 -84.3863
rradius 29.2975
rwrist 10.6636
rhand -34.3 -21.3887
rfingers 7.12502
rthumb -7.46916 -51.2369
lclavicle -5.51627e-014 5.08889e-014
lhumerus -35.08 -6.81046 67.641
lradius 37.6928
lwrist -7.20031
lhand -27.2649 36.7122
lfingers 7.12502
lthumb -0.675893 66.6909
rfemur -27.4717 16.4528 14.8307
rtibia -6.64475
rfoot -36.3417 -31.2963
rtoes 8.95052
lfemur 11.6044 -21.3554 -38.2173
ltibia 2.90133
lfoot -16.1741 19.916
ltoes -69.0046
173
root 12.1791 15.6151 -10.8655 -181.994 70.9514 -191.624
lowerback 7.85772 1.12441 0.789222
upperback -9.68562 1.51824 -4.20981
thorax -15.0558 0.465949 -5.53231
lowerneck -15.2415 -9.02524 -5.25589
upperneck 35.3183 -13.571 8.12827
head 16.1613 -4.71758 2.05052
rclavicle 3.926e-014 -1.19271e-014
rhumerus -57.4298 18.0709 -82.3162
rradius 25.7145
rwrist 9.42172
rhand -33.5877 -23.0913
rfingers 7.12502
rthumb -6.78153 -52.9627
lclavicle 3.926e-014 -1.19271e-014
lhumerus -34.4028 -6.37129 67.6871
lradius 38.2238
lwrist -6.09725
lhand -27.5485 36.1142
lfingers 7.12502
lthumb -0.949856 66.0918
rfemur -27.3562 15.8912 15.2345
rtibia -5.58659
rfoot -37.1057 -30.2399
rtoes 8.72591
lfemur 12.6427 -21.1774 -38.1885
ltibia 3.11232
lfoot -16.1263 19.3283
ltoes -69.11
174
root 12.5406 15.5745 -10.8713 -181.809 70.713 -191.538
lowerback 7.14844 1.07091 0.729961
upperback -9.78378 1.47118 -4.10992
thorax -14.7252 0.475622 -5.34338
lowerneck -15.3157 -9.05701 -5.931
upperneck 35.63 -13.4739 8.26022
head 16.4093 -4.7287 2.24687
rclavicle -5.46658e-014 -1.82882e-014
rhumerus -57.9135 14.3384 -79.7952
rradius 22.5272
rwrist 7.77872
rhand -32.7417 -24.4138
rfingers 7.12502
rthumb -5.96482 -54.3099
lclavicle -5.46658e-014 -1.82882e-014
lhumerus -33.9136 -5.91107 68.0351
lradius 38.8404
lwrist -4.93333
lhand -27.8061 35.3459
lfingers 7.12502
lthumb -1.19866 65.3223
rfemur -26.8194 15.6838 16.0067
rtibia -4.35086
rfoot -35.8979 -31.01
rtoes 5.67186
lfemur 13.7413 -20.7659 -37.9596
ltibia 3.44257
lfoot -16.0954 18.5639
ltoes -69.1856
175
root 12.9126 15.5336 -10.8777 -181.705 70.5441 -191.374
lowerback 6.56995 1.0066 0.739133
upperback -9.89166 1.41688 -4.00023
thorax -14.491 0.470189 -5.19103
lowerneck -15.4134 -9.10812 -6.58646
upperneck 35.986 -13.3995 8.35209
head 16.6858 -4.75126 2.42076
rclavicle 1.89839e-014 -1.27222e-014
rhumerus -58.5082 10.2483 -76.4736
rradius 19.8503
rwrist 7.12312
rhand -31.4656 -25.94
rfingers 7.12502
rthumb -4.73275 -55.8671
lclavicle 1.89839e-014 -1.27222e-014
lhumerus -33.6128 -5.20506 68.4048
lradius 39.4901
lwrist -4.46667
lhand -27.9578 34.3817
lfingers 7.12502
lthumb -1.34513 64.3572
rfemur -25.7162 15.6139 16.9496
rtibia -3.98814
rfoot -35.3364 -32.3102
rtoes 8.15902
lfemur 15.058 -20.5564 -37.8519
ltibia 3.78462
lfoot -15.9278 18.1862
ltoes -69.2452
176
root 13.2883 15.4967 -10.8853 -181.729 70.4506 -191.195
lowerback 6.18389 0.925016 0.890414
upperback -10.021 1.3462 -3.972
thorax -14.4057 0.430253 -5.22182
lowerneck -15.0678 -9.15008 -6.83368
upperneck 36.0196 -13.4175 8.42475
head 16.6532 -4.78807 2.50646
rclavicle -6.32135e-014 3.97569e-015
rhumerus -59.2895 5.88154 -72.5318
rradius 17.6109
rwrist 7.45241
rhand -29.6721 -27.4514
rfingers 7.12502
rthumb -3.00082 -57.41
lclavicle -6.32135e-014 3.97569e-015
lhumerus -33.7007 -4.76345 68.798
lradius 40.4943
lwrist -4.0893
lhand -27.8961 35.6412
lfingers 7.12502
lthumb -1.28552 65.617
rfemur -24.1465 15.5662 17.8949
rtibia -4.55965
rfoot -34.6681 -34.7107
rtoes 9.69085
lfemur 16.5932 -20.5519 -37.9265
ltibia 4.16789
lfoot -15.5341 18.1767
ltoes -69.348
177
root 13.6706 15.465 -10.8887 -181.581 70.4938 -190.66
lowerback 5.91516 0.870981 1.13536
upperback -10.1444 1.32005 -3.94746
thorax -14.3832 0.397338 -5.32384
lowerneck -14.3751 -9.05273 -6.13764
upperneck 35.7699 -13.3075 7.98969
head 16.2221 -4.73882 2.24153
rclavicle -2.80286e-014 -7.95139e-016
rhumerus -60.4375 1.91361 -68.6703
rradius 15.8165
rwrist 7.85521
rhand -28.1805 -28.7451
rfingers 7.12502
rthumb -1.56024 -58.7191
lclavicle -2.80286e-014 -7.95139e-016
lhumerus -34.3339 -4.84934 69.3434
lradius 41.8916
lwrist -3.21061
lhand -27.6138 37.2025
lfingers 7.12502
lthumb -1.01295 67.1799
rfemur -22.616 15.545 18.8696
rtibia -4.61914
rfoot -33.5917 -35.6846
rtoes 14.4844
lfemur 18.0648 -20.1555 -37.6915
ltibia 4.94312
lfoot -14.8573 17.8076
ltoes -69.559
178
root 14.0658 15.4408 -10.8885 -181.151 70.624 -189.459
lowerback 5.78662 0.81577 1.56298
upperback -10.1191 1.30121 -3.90203
thorax -14.2683 0.346781 -5.50316
lowerneck -14.3538 -8.94933 -5.62285
upperneck 36.2785 -13.1193 7.44715
head 16.3493 -4.63231 1.97494
rclavicle 4.26393e-014 -8.74653e-015
rhumerus -61.8897 -1.37266 -65.3745
rradius 14.651
rwrist 8.29869
rhand -26.9851 -29.8084
rfingers 7.12502
rthumb -0.405706 -59.7877
lclavicle 4.26393e-014 -8.74653e-015
lhumerus -35.1652 -4.97786 69.9306
lradius 43.2843
lwrist -2.19309
lhand -27.9979 38.2947
lfingers 7.12502
lthumb -1.38384 68.2699
rfemur -21.3059 15.4235 19.8891
rtibia -3.27641
rfoot -32.8327 -34.3101
rtoes 19.6569
lfemur 19.6725 -19.4872 -37.13
ltibia 6.03049
lfoot -13.8558 17.1959
ltoes -69.8526
